<?xml version="1.0" encoding="utf-8"?>
<!-- Generator: Adobe Illustrator 22.0.0, SVG Export Plug-In . SVG Version: 6.00 Build 0)  -->
<svg version="1.1" id="Layer_1" xmlns="http://www.w3.org/2000/svg" xmlns:xlink="http://www.w3.org/1999/xlink" x="0px" y="0px"
	 viewBox="0 0 91 91" style="enable-background:new 0 0 91 91;" xml:space="preserve">
<style type="text/css">
	.st0{fill:#21BDA1;}
</style>
<g>
	<path class="st0" d="M79.5,11.9c-4.1-3.3-9.3-5.2-14.7-5.2c-6.2,0-12.3,2.5-16.6,6.8c-1,1-1.9,2.1-2.8,3.3
		C41.2,10.5,34.1,6.7,26.5,6.7c-1.4,0-2.8,0.1-4.2,0.4C15,8.4,9.4,12.4,5.4,18.9C-0.3,28.2-0.7,36.8,4,45.2
		c2.5,4.5,5.9,8.9,10.1,13.4c7.9,8.4,17.2,16.3,29.3,25c0.6,0.5,1.3,0.7,2,0.7c1.1,0,1.8-0.6,2.3-0.9c10.8-7.7,19.6-15.1,27.1-22.7
		c4.2-4.3,8.9-9.5,12.4-16c1.5-2.7,3.1-6.4,3-10.6C90,25.1,86.4,17.6,79.5,11.9z"/>
</g>
</svg>
