<?xml version="1.0" encoding="utf-8"?>
<!-- Generator: Adobe Illustrator 22.0.0, SVG Export Plug-In . SVG Version: 6.00 Build 0)  -->
<svg version="1.1" id="Layer_1" xmlns="http://www.w3.org/2000/svg" xmlns:xlink="http://www.w3.org/1999/xlink" x="0px" y="0px"
	 viewBox="0 0 91 91" style="enable-background:new 0 0 91 91;" xml:space="preserve">
<style type="text/css">
	.st0{fill:#21BDA1;}
</style>
<g>
	<path class="st0" d="M26.5,8.7c6.9,0,13.4,3.5,17.4,9.3l1.6,2.4l1.6-2.4c0.8-1.1,1.6-2.1,2.5-3.1c3.9-3.9,9.4-6.2,15.1-6.2
		c4.9,0,9.7,1.7,13.4,4.7c6.4,5.3,9.8,12.3,10,20.8c0.1,3.7-1.4,7.1-2.8,9.6c-3.3,6.3-7.9,11.4-12,15.5
		c-7.3,7.5-16.1,14.8-26.8,22.5c-0.4,0.3-0.7,0.5-1.1,0.5c-0.3,0-0.6-0.1-0.9-0.3c-12-8.6-21.2-16.5-29-24.7
		c-4.2-4.4-7.4-8.7-9.9-13.1c-4.4-7.7-3.9-15.7,1.3-24.3c3.7-6,8.9-9.7,15.5-10.9C23.9,8.8,25.2,8.7,26.5,8.7 M26.5,6.7
		c-1.4,0-2.8,0.1-4.2,0.4C15,8.4,9.4,12.4,5.4,18.9C-0.3,28.2-0.7,36.8,4,45.2c2.5,4.5,5.9,8.9,10.1,13.4c7.9,8.4,17.2,16.3,29.3,25
		c0.6,0.5,1.3,0.7,2,0.7c1.1,0,1.8-0.6,2.3-0.9c10.8-7.7,19.6-15.1,27.1-22.7c4.2-4.3,8.9-9.5,12.4-16c1.5-2.7,3.1-6.4,3-10.6
		c-0.2-9.1-3.8-16.6-10.7-22.3c-4.1-3.3-9.3-5.2-14.7-5.2c-6.2,0-12.3,2.5-16.6,6.8c-1,1-1.9,2.1-2.8,3.3
		C41.2,10.5,34.1,6.7,26.5,6.7L26.5,6.7z"/>
</g>
</svg>
