<?xml version="1.0" encoding="utf-8"?>
<!-- Generator: Adobe Illustrator 24.0.2, SVG Export Plug-In . SVG Version: 6.00 Build 0)  -->
<svg version="1.1" id="Layer_1" xmlns="http://www.w3.org/2000/svg" xmlns:xlink="http://www.w3.org/1999/xlink" x="0px" y="0px"
	 viewBox="0 0 229 56" style="enable-background:new 0 0 229 56;" xml:space="preserve">
<style type="text/css">
	.st0{fill:#21BDA1;}
	.st1{fill:#606060;}
</style>
<g>
	<path class="st0" d="M47.22,49.77c0,1.06-0.37,1.94-1.12,2.63c-0.74,0.7-1.67,1.04-2.77,1.04H7.62c-1.15,0-2.09-0.34-2.81-1.01
		c-0.72-0.67-1.08-1.56-1.08-2.67V5.65c0-0.82,0.31-1.54,0.94-2.16c0.62-0.62,1.42-0.94,2.38-0.94h36.86c0.91,0,1.69,0.3,2.34,0.9
		s0.97,1.33,0.97,2.2V49.77z M40.52,21.36V10.18c0-0.91-0.12-1.52-0.36-1.8c-0.24-0.29-0.84-0.43-1.8-0.43H12.23
		c-0.82,0-1.36,0.16-1.62,0.47c-0.26,0.31-0.4,0.9-0.4,1.77v34.77c0,1.15,0.1,1.88,0.29,2.16c0.19,0.29,0.77,0.43,1.73,0.43h22.54
		c0.91,0,1.49-0.17,1.73-0.51c0.24-0.34,0.36-1.03,0.36-2.09v-9.67v-1.95c0-0.58,0.08-1.21,0.24-1.91c0.16-0.7,0.45-1.5,0.87-2.42
		l1.66-3.46c0.42-0.87,0.67-1.49,0.76-1.88S40.52,22.52,40.52,21.36z"/>
	<path class="st1" d="M97.33,49.78c0,1.06-0.37,1.93-1.12,2.63c-0.74,0.7-1.67,1.04-2.77,1.04H57.73c-1.15,0-2.09-0.34-2.81-1.01
		c-0.72-0.67-1.08-1.56-1.08-2.67V5.65c0-0.82,0.31-1.54,0.94-2.16c0.62-0.62,1.42-0.94,2.38-0.94h36.86c0.91,0,1.69,0.3,2.34,0.9
		c0.65,0.6,0.97,1.33,0.97,2.2v8.14c0,1.39-0.7,2.09-2.09,2.09h-6.48c-0.58,0-1.07-0.2-1.48-0.61c-0.41-0.41-0.61-0.9-0.61-1.48
		v-3.6c0-0.96-0.13-1.57-0.4-1.84c-0.26-0.26-0.88-0.4-1.84-0.4h-22.1c-0.82,0-1.36,0.16-1.62,0.47c-0.26,0.31-0.4,0.9-0.4,1.77
		v34.77c0,1.15,0.1,1.88,0.29,2.16c0.19,0.29,0.77,0.43,1.73,0.43h26.86c0.91,0,1.49-0.17,1.73-0.5c0.24-0.33,0.36-1.03,0.36-2.09
		v-8.14c0-1.82,0.7-2.74,2.09-2.74h1.94c1.34,0,2.02,0.91,2.02,2.74V49.78z"/>
	<path class="st1" d="M113.24,51.14c0,1.54-0.65,2.31-1.94,2.31h-5.9c-1.73,0-2.59-0.72-2.59-2.16V4.06c0-1.01,0.48-1.51,1.44-1.51
		h3.38c1.01,0,1.51,0.5,1.51,1.51v24.8c0,0.82,0.07,1.42,0.22,1.8c0.29,0.43,0.48,0.77,0.58,1.01l2.74,5.26
		c0.24,0.53,0.4,1.05,0.47,1.55c0.07,0.51,0.11,1.19,0.11,2.06V51.14z"/>
	<path class="st1" d="M153.56,51.58c0,1.25-0.6,1.87-1.8,1.87h-30.24c-0.96,0-1.73-0.31-2.3-0.94c-0.58-0.62-0.86-1.46-0.86-2.52
		V32.72c0-0.82,0.32-1.52,0.97-2.12c0.65-0.6,1.5-0.9,2.56-0.9h20.38c0.72,0,1.08-0.36,1.08-1.09v-3.35c0-0.73-0.48-1.09-1.44-1.09
		h-21.46c-0.62,0-1.13-0.05-1.51-0.14c-0.38-0.09-0.58-0.55-0.58-1.35v-2.35c0-0.76,0.12-1.26,0.36-1.49
		c0.24-0.24,0.82-0.36,1.73-0.36h25.78c2.06,0,3.1,1.06,3.1,3.17v24.19c0,1.15,0.5,1.73,1.51,1.73h1.22c1.01,0,1.51,0.55,1.51,1.66
		V51.58z M143.34,45.82v-8.57c0-0.72-0.08-1.19-0.25-1.4c-0.17-0.22-0.56-0.32-1.19-0.32h-11.95c-0.62,0-1,0.08-1.12,0.25
		c-0.12,0.17-0.18,0.54-0.18,1.12v8.93c0,0.96,0.43,1.44,1.3,1.44h11.95c0.67,0,1.08-0.07,1.22-0.22
		C143.26,46.9,143.34,46.49,143.34,45.82z"/>
	<path class="st1" d="M187.61,50.86c0,0.72-0.2,1.33-0.61,1.84c-0.41,0.5-0.9,0.76-1.48,0.76h-26.64c-0.86,0-1.56-0.24-2.09-0.72
		c-0.53-0.48-0.79-1.15-0.79-2.02v-6.26c0-1.15,0.46-1.73,1.37-1.73h4.18c0.72,0,1.08,0.58,1.08,1.75v1.9
		c0,0.68,0.06,1.08,0.18,1.21c0.12,0.12,0.44,0.18,0.97,0.18h12.17c0.91,0,1.37-0.46,1.37-1.38v-6.68c0-0.73-0.46-1.09-1.37-1.09
		h-17.28c-0.77,0-1.4-0.23-1.91-0.68c-0.5-0.46-0.76-1.04-0.76-1.76V21.2c0-0.77,0.31-1.42,0.94-1.94c0.62-0.53,1.46-0.79,2.52-0.79
		h26.06c0.58,0,1.07,0.21,1.48,0.61c0.41,0.41,0.61,0.88,0.61,1.4v6.26c0,1.44-0.53,2.16-1.58,2.16h-3.53
		c-1.25,0-1.87-0.4-1.87-1.21v-2.13c0-0.76-0.14-1.18-0.43-1.28c-0.29-0.09-0.7-0.14-1.22-0.14h-14.83c-0.67,0-1.09,0.11-1.26,0.32
		c-0.17,0.22-0.25,0.66-0.25,1.33v5.54c0,0.62,0.08,1,0.25,1.12c0.17,0.12,0.59,0.18,1.26,0.18h21.02c1.63,0,2.45,0.79,2.45,2.38
		V50.86z"/>
	<path class="st1" d="M225.27,50.86c0,0.72-0.2,1.33-0.61,1.84c-0.41,0.5-0.9,0.76-1.48,0.76h-26.64c-0.86,0-1.56-0.24-2.09-0.72
		c-0.53-0.48-0.79-1.15-0.79-2.02v-6.26c0-1.15,0.46-1.73,1.37-1.73h4.18c0.72,0,1.08,0.58,1.08,1.75v1.9
		c0,0.68,0.06,1.08,0.18,1.21c0.12,0.12,0.44,0.18,0.97,0.18h12.17c0.91,0,1.37-0.46,1.37-1.38v-6.68c0-0.73-0.46-1.09-1.37-1.09
		h-17.28c-0.77,0-1.4-0.23-1.91-0.68c-0.5-0.46-0.76-1.04-0.76-1.76V21.2c0-0.77,0.31-1.42,0.94-1.94c0.62-0.53,1.46-0.79,2.52-0.79
		h26.06c0.58,0,1.07,0.21,1.48,0.61c0.41,0.41,0.61,0.88,0.61,1.4v6.26c0,1.44-0.53,2.16-1.58,2.16h-3.53
		c-1.25,0-1.87-0.4-1.87-1.21v-2.13c0-0.76-0.14-1.18-0.43-1.28c-0.29-0.09-0.7-0.14-1.22-0.14H201.8c-0.67,0-1.09,0.11-1.26,0.32
		c-0.17,0.22-0.25,0.66-0.25,1.33v5.54c0,0.62,0.08,1,0.25,1.12c0.17,0.12,0.59,0.18,1.26,0.18h21.02c1.63,0,2.45,0.79,2.45,2.38
		V50.86z"/>
</g>
</svg>
